<?xml version="1.0" encoding="UTF-8"?>
<svg id="Layer_1" xmlns="http://www.w3.org/2000/svg" version="1.1" viewBox="0 0 3000 3000">
  <!-- Generator: Adobe Illustrator 30.1.0, SVG Export Plug-In . SVG Version: 2.1.1 Build 136)  -->
  <path d="M677.7,2363.4h255.9c0-.1,18.2-2.2,18.2-2.2l5.5-12.7c417.4-510.4,767.6-523.1,771-523.1h15.9c0-.1,2.2-57,2.2-57l-15.8-1.4c-93.7-8.1-187.7-3.4-281,13.7-125.9,23.1-228.2,65.8-295.4,100l351.1-823.1,333.2,800.7,208.9,505.1h274.3L1510.5,462.6l-832.8,1900.8Z"/>
  <path d="M1500,0C672.9,0,0,672.9,0,1500s672.9,1500,1500,1500,1500-672.9,1500-1500S2327.1,0,1500,0ZM1500,2797.6c-715.5,0-1297.6-582.1-1297.6-1297.6S784.5,202.4,1500,202.4s1297.6,582.1,1297.6,1297.6-582.1,1297.6-1297.6,1297.6Z"/>
</svg>